<svg width="235" height="94" viewBox="0 0 235 94" fill="none" xmlns="http://www.w3.org/2000/svg">
<path d="M0.358932 73.5005C0.170315 72.288 1.10805 71.1931 2.33516 71.1931H144.613C145.858 71.1931 146.8 72.3178 146.582 73.5432L146.227 75.5438C144.36 86.044 135.231 93.6931 124.566 93.6931H22.3424C11.4977 93.6931 2.2707 85.7904 0.603797 75.0747L0.358932 73.5005Z" fill="black"/>
<rect x="138" y="73.1931" width="18" height="5" fill="black"/>
<rect x="151" y="70.1731" width="83" height="12" rx="6" transform="rotate(-8.99718 151 70.1731)" fill="black"/>
<path d="M84.1252 32.6954C75.4062 24.7463 62.7138 8.72397 55 3.69315C43.5 -3.80693 35.0331 3.81093 32.5 7.19315C29.9669 10.5754 27.0335 21.311 39.0334 33.3112C48.5521 42.8301 67.1947 51.0904 74.497 54.0994C76.5042 54.9265 78.6457 55.3112 80.8166 55.3112H96.3013C98.2315 55.3112 99.9451 54.0761 100.555 52.245C101.362 49.8265 99.8691 47.3912 97.7544 45.9675C97.678 45.916 97.6042 45.8639 97.5334 45.8112C94.6164 43.6399 86.8124 35.1453 84.1252 32.6954Z" fill="black" stroke="black"/>
</svg>
